<svg width="168" height="45" viewBox="0 0 168 45" fill="none" xmlns="http://www.w3.org/2000/svg">
<path d="M111.404 22.36V21.36H110.404V22.36H111.404ZM117.704 22.36H118.704V21.36H117.704V22.36ZM117.704 32.8L118.287 33.6128L118.704 33.3136V32.8H117.704ZM99.992 34.348L99.5209 35.2301L99.5287 35.2342L99.992 34.348ZM95.024 29.668L95.8806 29.152L95.024 29.668ZM95.024 16.132L94.1674 15.616L95.024 16.132ZM100.028 11.488L100.487 12.3764L100.495 12.3723L100.028 11.488ZM113.6 10.984L113.99 10.063L113.6 10.984ZM118.28 14.404L118.951 15.1455L119.665 14.4993L119.046 13.7614L118.28 14.404ZM113.744 18.508L113.004 19.1811L113.676 19.9184L114.415 19.2495L113.744 18.508ZM102.404 17.68L103.105 18.3936L103.111 18.3871L102.404 17.68ZM101.324 26.644L100.445 27.1215L100.45 27.1296L101.324 26.644ZM103.844 29.2L103.344 30.0659L103.351 30.0701L103.358 30.0742L103.844 29.2ZM111.404 29.272L111.822 30.1805L112.404 29.9127V29.272H111.404ZM111.404 23.36H117.704V21.36H111.404V23.36ZM116.704 22.36V32.8H118.704V22.36H116.704ZM117.121 31.9872C115.781 32.9477 114.229 33.6933 112.453 34.2168L113.019 36.1352C114.987 35.5547 116.747 34.7163 118.287 33.6128L117.121 31.9872ZM112.453 34.2168C110.669 34.7429 108.892 35.004 107.12 35.004V37.004C109.092 37.004 111.059 36.7131 113.019 36.1352L112.453 34.2168ZM107.12 35.004C104.624 35.004 102.409 34.4833 100.455 33.4618L99.5287 35.2342C101.799 36.4207 104.336 37.004 107.12 37.004V35.004ZM100.463 33.4659C98.5053 32.4203 96.9846 30.9847 95.8806 29.152L94.1674 30.184C95.4634 32.3353 97.2547 34.0197 99.5209 35.2301L100.463 33.4659ZM95.8806 29.152C94.7822 27.3287 94.224 25.2539 94.224 22.9H92.224C92.224 25.5861 92.8658 28.0233 94.1674 30.184L95.8806 29.152ZM94.224 22.9C94.224 20.5461 94.7822 18.4713 95.8806 16.648L94.1674 15.616C92.8658 17.7767 92.224 20.2139 92.224 22.9H94.224ZM95.8806 16.648C96.9818 14.8201 98.5097 13.3984 100.487 12.3764L99.5688 10.5996C97.2743 11.7856 95.4662 13.4599 94.1674 15.616L95.8806 16.648ZM100.495 12.3723C102.471 11.3285 104.72 10.796 107.264 10.796V8.796C104.432 8.796 101.857 9.39147 99.561 10.6037L100.495 12.3723ZM107.264 10.796C109.503 10.796 111.479 11.1727 113.21 11.905L113.99 10.063C111.977 9.21133 109.729 8.796 107.264 8.796V10.796ZM113.21 11.905C114.944 12.6383 116.372 13.6856 117.514 15.0466L119.046 13.7614C117.692 12.1464 116 10.9137 113.99 10.063L113.21 11.905ZM117.609 13.6625L113.073 17.7665L114.415 19.2495L118.951 15.1455L117.609 13.6625ZM114.484 17.8349C112.604 15.77 110.302 14.7 107.624 14.7V16.7C109.698 16.7 111.476 17.502 113.004 19.1811L114.484 17.8349ZM107.624 14.7C105.244 14.7 103.234 15.4357 101.697 16.9729L103.111 18.3871C104.214 17.2843 105.684 16.7 107.624 16.7V14.7ZM101.703 16.9664C100.158 18.4842 99.424 20.4999 99.424 22.9H101.424C101.424 20.9321 102.01 19.4678 103.105 18.3936L101.703 16.9664ZM99.424 22.9C99.424 24.4405 99.7574 25.8556 100.445 27.1215L102.203 26.1665C101.691 25.2244 101.424 24.1435 101.424 22.9H99.424ZM100.45 27.1296C101.139 28.3695 102.109 29.3522 103.344 30.0659L104.344 28.3341C103.419 27.7998 102.709 27.0785 102.198 26.1584L100.45 27.1296ZM103.358 30.0742C104.605 30.7667 106.012 31.1 107.552 31.1V29.1C106.308 29.1 105.243 28.8333 104.33 28.3258L103.358 30.0742ZM107.552 31.1C109.059 31.1 110.486 30.795 111.822 30.1805L110.986 28.3635C109.922 28.853 108.781 29.1 107.552 29.1V31.1ZM112.404 29.272V22.36H110.404V29.272H112.404ZM141.735 27.472V28.472H142.671L142.733 27.5385L141.735 27.472ZM127.551 27.472V26.472H126.225L126.59 27.7467L127.551 27.472ZM129.207 29.812L128.647 30.6403L128.661 30.6497L128.675 30.6586L129.207 29.812ZM134.751 30.208L134.396 29.2729L134.385 29.2772L134.751 30.208ZM136.839 28.912L137.56 28.2189L136.904 27.5362L136.186 28.1546L136.839 28.912ZM140.439 32.656L141.183 33.324L141.804 32.6326L141.16 31.9629L140.439 32.656ZM126.111 34.528L126.558 33.6336L126.111 34.528ZM122.079 30.928L121.225 31.4484L121.231 31.458L122.079 30.928ZM122.043 20.56L121.189 20.0396L121.187 20.0435L122.043 20.56ZM125.895 16.96L125.427 16.0762V16.0762L125.895 16.96ZM136.695 16.888L136.237 17.777L136.248 17.7824L136.695 16.888ZM140.439 20.38L139.579 20.8905L139.584 20.8985L139.589 20.9064L140.439 20.38ZM128.775 21.424L128.135 20.6558L128.129 20.6611L128.122 20.6666L128.775 21.424ZM127.443 23.872L126.46 23.6891L126.24 24.872H127.443V23.872ZM135.435 23.872V24.872H136.638L136.418 23.6891L135.435 23.872ZM134.067 21.424L133.414 22.1814L133.421 22.1869L133.427 22.1922L134.067 21.424ZM140.843 25.78C140.843 25.762 140.838 25.8636 140.818 26.1753C140.8 26.4559 140.773 26.8657 140.737 27.4055L142.733 27.5385C142.802 26.4955 142.843 25.8722 142.843 25.78H140.843ZM141.735 26.472H127.551V28.472H141.735V26.472ZM126.59 27.7467C126.938 28.965 127.623 29.9478 128.647 30.6403L129.767 28.9837C129.159 28.5722 128.741 27.995 128.513 27.1973L126.59 27.7467ZM128.675 30.6586C129.711 31.3097 130.951 31.604 132.339 31.604V29.604C131.231 29.604 130.383 29.3703 129.739 28.9654L128.675 30.6586ZM132.339 31.604C133.365 31.604 134.299 31.4599 135.117 31.1388L134.385 29.2772C133.859 29.4841 133.185 29.604 132.339 29.604V31.604ZM135.106 31.143C135.933 30.8292 136.728 30.3283 137.492 29.6694L136.186 28.1546C135.559 28.6957 134.961 29.0588 134.396 29.273L135.106 31.143ZM136.118 29.6051L139.718 33.3491L141.16 31.9629L137.56 28.2189L136.118 29.6051ZM139.695 31.988C138.04 33.832 135.573 34.824 132.123 34.824V36.824C135.969 36.824 139.047 35.704 141.183 33.324L139.695 31.988ZM132.123 34.824C129.971 34.824 128.125 34.4167 126.558 33.6336L125.664 35.4224C127.554 36.3673 129.716 36.824 132.123 36.824V34.824ZM126.558 33.6336C124.984 32.8462 123.783 31.7675 122.927 30.398L121.231 31.458C122.295 33.1605 123.783 34.4818 125.664 35.4224L126.558 33.6336ZM122.933 30.4076C122.1 29.041 121.675 27.4838 121.675 25.708H119.675C119.675 27.8202 120.186 29.743 121.225 31.4484L122.933 30.4076ZM121.675 25.708C121.675 23.9536 122.09 22.4191 122.899 21.0765L121.187 20.0435C120.173 21.7249 119.675 23.6224 119.675 25.708H121.675ZM122.897 21.0804C123.737 19.7023 124.886 18.6259 126.363 17.8438L125.427 16.0762C123.641 17.0221 122.221 18.3457 121.189 20.0396L122.897 21.0804ZM126.363 17.8438C127.836 17.0638 129.509 16.664 131.403 16.664V14.664C129.217 14.664 127.218 15.1281 125.427 16.0762L126.363 17.8438ZM131.403 16.664C133.203 16.664 134.807 17.0404 136.237 17.777L137.153 15.999C135.415 15.1036 133.492 14.664 131.403 14.664V16.664ZM136.248 17.7824C137.659 18.4879 138.764 19.5179 139.579 20.8905L141.299 19.8695C140.29 18.1701 138.899 16.8721 137.142 15.9936L136.248 17.7824ZM139.589 20.9064C140.411 22.2345 140.843 23.8451 140.843 25.78H142.843C142.843 23.5389 142.339 21.5495 141.289 19.8536L139.589 20.9064ZM131.439 19.524C130.181 19.524 129.057 19.887 128.135 20.6558L129.415 22.1922C129.933 21.761 130.586 21.524 131.439 21.524V19.524ZM128.122 20.6666C127.23 21.4358 126.687 22.4671 126.46 23.6891L128.426 24.0549C128.583 23.2129 128.928 22.6122 129.428 22.1814L128.122 20.6666ZM127.443 24.872H135.435V22.872H127.443V24.872ZM136.418 23.6891C136.189 22.4572 135.628 21.423 134.707 20.6558L133.427 22.1922C133.946 22.625 134.297 23.2228 134.452 24.0549L136.418 23.6891ZM134.72 20.6666C133.816 19.887 132.697 19.524 131.439 19.524V21.524C132.293 21.524 132.927 21.761 133.414 22.1814L134.72 20.6666ZM163.537 17.824L162.836 18.5369L162.841 18.5426L163.537 17.824ZM165.769 35.5V36.5H166.769V35.5H165.769ZM158.929 35.5H157.929V36.5H158.929V35.5ZM152.881 22.612L152.151 21.9281L152.145 21.9342L152.14 21.9405L152.881 22.612ZM151.837 35.5V36.5H152.837V35.5H151.837ZM144.997 35.5H143.997V36.5H144.997V35.5ZM144.997 15.988V14.988H143.997V15.988H144.997ZM151.513 15.988H152.513V14.988H151.513V15.988ZM151.513 18.112H150.513V20.5797L152.231 18.8081L151.513 18.112ZM154.249 16.312L154.609 17.2448L154.618 17.2413L154.627 17.2375L154.249 16.312ZM157.705 16.664C159.917 16.664 161.592 17.3137 162.836 18.5369L164.238 17.1111C162.554 15.4543 160.34 14.664 157.705 14.664V16.664ZM162.841 18.5426C164.067 19.7289 164.769 21.5958 164.769 24.34H166.769C166.769 21.2762 165.982 18.7991 164.232 17.1054L162.841 18.5426ZM164.769 24.34V35.5H166.769V24.34H164.769ZM165.769 34.5H158.929V36.5H165.769V34.5ZM159.929 35.5V25.456H157.929V35.5H159.929ZM159.929 25.456C159.929 24.0168 159.645 22.7522 158.908 21.8334C158.137 20.8725 157.013 20.46 155.725 20.46V22.46C156.573 22.46 157.05 22.7135 157.348 23.0846C157.679 23.4978 157.929 24.2312 157.929 25.456H159.929ZM155.725 20.46C154.308 20.46 153.083 20.9337 152.151 21.9281L153.61 23.2959C154.118 22.7543 154.789 22.46 155.725 22.46V20.46ZM152.14 21.9405C151.212 22.9638 150.837 24.4009 150.837 26.068H152.837C152.837 24.6631 153.157 23.7962 153.622 23.2835L152.14 21.9405ZM150.837 26.068V35.5H152.837V26.068H150.837ZM151.837 34.5H144.997V36.5H151.837V34.5ZM145.997 35.5V15.988H143.997V35.5H145.997ZM144.997 16.988H151.513V14.988H144.997V16.988ZM150.513 15.988V18.112H152.513V15.988H150.513ZM152.231 18.8081C152.895 18.1227 153.684 17.6021 154.609 17.2448L153.888 15.3792C152.701 15.8379 151.666 16.5173 150.795 17.4159L152.231 18.8081ZM154.627 17.2375C155.552 16.8591 156.574 16.664 157.705 16.664V14.664C156.339 14.664 155.057 14.9009 153.87 15.3865L154.627 17.2375Z" fill="url(#paint0_linear_8_9)"/>
<path d="M26.496 10.3V35.5H20.628L9.504 22.072V35.5H2.52V10.3H8.388L19.512 23.728V10.3H26.496ZM51.1439 25.78C51.1439 25.828 51.1079 26.392 51.0359 27.472H36.8519C37.1399 28.48 37.6919 29.26 38.5079 29.812C39.3479 30.34 40.3919 30.604 41.6399 30.604C42.5759 30.604 43.3799 30.472 44.0519 30.208C44.7479 29.944 45.4439 29.512 46.1399 28.912L49.7399 32.656C47.8439 34.768 45.0719 35.824 41.4239 35.824C39.1439 35.824 37.1399 35.392 35.4119 34.528C33.6839 33.664 32.3399 32.464 31.3799 30.928C30.4439 29.392 29.9759 27.652 29.9759 25.708C29.9759 23.788 30.4319 22.072 31.3439 20.56C32.2799 19.024 33.5639 17.824 35.1959 16.96C36.8279 16.096 38.6639 15.664 40.7039 15.664C42.6479 15.664 44.4119 16.072 45.9959 16.888C47.5799 17.68 48.8279 18.844 49.7399 20.38C50.6759 21.892 51.1439 23.692 51.1439 25.78ZM40.7399 20.524C39.6839 20.524 38.7959 20.824 38.0759 21.424C37.3799 22.024 36.9359 22.84 36.7439 23.872H44.7359C44.5439 22.84 44.0879 22.024 43.3679 21.424C42.6719 20.824 41.7959 20.524 40.7399 20.524ZM66.1542 35.5L62.6622 30.388L58.9182 35.5H51.5022L58.9182 25.744L51.7182 15.988H59.4222L62.8782 20.92L66.4782 15.988H73.7142L66.5142 25.492L73.9662 35.5H66.1542ZM89.5233 34.708C88.9473 35.068 88.2393 35.344 87.3993 35.536C86.5833 35.728 85.7073 35.824 84.7713 35.824C82.2273 35.824 80.2713 35.2 78.9033 33.952C77.5353 32.704 76.8513 30.844 76.8513 28.372V21.82H74.0073V16.708H76.8513V11.632H83.6913V16.708H88.1553V21.82H83.6913V28.3C83.6913 28.996 83.8713 29.548 84.2313 29.956C84.6153 30.34 85.1193 30.532 85.7433 30.532C86.5353 30.532 87.2313 30.328 87.8313 29.92L89.5233 34.708Z" fill="url(#paint1_linear_8_9)"/>
<defs>
<linearGradient id="paint0_linear_8_9" x1="130" y1="0.5" x2="130" y2="44.5" gradientUnits="userSpaceOnUse">
<stop stop-color="#5C43F6"/>
<stop offset="1" stop-color="#BC61F3"/>
</linearGradient>
<linearGradient id="paint1_linear_8_9" x1="45" y1="0.5" x2="45" y2="44.5" gradientUnits="userSpaceOnUse">
<stop stop-color="#5C43F6"/>
<stop offset="1" stop-color="#BC61F3"/>
</linearGradient>
</defs>
</svg>
